<svg width="16" height="16" viewBox="0 0 16 16" fill="none" xmlns="http://www.w3.org/2000/svg">
<g clip-path="url(#clip0_14583_311)">
<path d="M11.3333 2.66659H14C14.1768 2.66659 14.3464 2.73682 14.4714 2.86185C14.5964 2.98687 14.6666 3.15644 14.6666 3.33325V13.9999C14.6666 14.1767 14.5964 14.3463 14.4714 14.4713C14.3464 14.5963 14.1768 14.6666 14 14.6666H1.99998C1.82317 14.6666 1.6536 14.5963 1.52858 14.4713C1.40355 14.3463 1.33331 14.1767 1.33331 13.9999V3.33325C1.33331 3.15644 1.40355 2.98687 1.52858 2.86185C1.6536 2.73682 1.82317 2.66659 1.99998 2.66659H4.66665V1.33325H5.99998V2.66659H9.99998V1.33325H11.3333V2.66659ZM13.3333 7.99992H2.66665V13.3333H13.3333V7.99992ZM9.99998 3.99992H5.99998V5.33325H4.66665V3.99992H2.66665V6.66659H13.3333V3.99992H11.3333V5.33325H9.99998V3.99992ZM3.99998 9.33325H5.33331V10.6666H3.99998V9.33325ZM7.33331 9.33325H8.66665V10.6666H7.33331V9.33325ZM10.6666 9.33325H12V10.6666H10.6666V9.33325Z" fill="#878787"/>
</g>
<defs>
<clipPath id="clip0_14583_311">
<rect width="16" height="16" fill="white"/>
</clipPath>
</defs>
</svg>
