<svg width="16" height="16" viewBox="0 0 16 16" fill="none" xmlns="http://www.w3.org/2000/svg">
<g clip-path="url(#clip0_14494_485)">
<path d="M8 13.9334L11.3 10.6334C11.9526 9.98078 12.397 9.14926 12.577 8.24403C12.7571 7.33879 12.6646 6.40051 12.3114 5.54781C11.9582 4.69512 11.36 3.96631 10.5926 3.45356C9.82519 2.9408 8.92296 2.66711 8 2.66711C7.07704 2.66711 6.17481 2.9408 5.40739 3.45356C4.63997 3.96631 4.04183 4.69512 3.68861 5.54781C3.33539 6.40051 3.24294 7.33879 3.42297 8.24403C3.603 9.14926 4.04741 9.98078 4.7 10.6334L8 13.9334ZM8 15.8188L3.75734 11.5761C2.91823 10.737 2.34679 9.66789 2.11529 8.50401C1.88378 7.34013 2.0026 6.13373 2.45673 5.03738C2.91086 3.94103 3.6799 3.00396 4.66659 2.34467C5.65328 1.68539 6.81332 1.3335 8 1.3335C9.18669 1.3335 10.3467 1.68539 11.3334 2.34467C12.3201 3.00396 13.0891 3.94103 13.5433 5.03738C13.9974 6.13373 14.1162 7.34013 13.8847 8.50401C13.6532 9.66789 13.0818 10.737 12.2427 11.5761L8 15.8188V15.8188ZM8 8.66678C8.35362 8.66678 8.69276 8.5263 8.94281 8.27625C9.19286 8.0262 9.33334 7.68707 9.33334 7.33344C9.33334 6.97982 9.19286 6.64068 8.94281 6.39063C8.69276 6.14059 8.35362 6.00011 8 6.00011C7.64638 6.00011 7.30724 6.14059 7.05719 6.39063C6.80714 6.64068 6.66667 6.97982 6.66667 7.33344C6.66667 7.68707 6.80714 8.0262 7.05719 8.27625C7.30724 8.5263 7.64638 8.66678 8 8.66678ZM8 10.0001C7.29276 10.0001 6.61448 9.71916 6.11438 9.21906C5.61429 8.71896 5.33334 8.04069 5.33334 7.33344C5.33334 6.6262 5.61429 5.94792 6.11438 5.44783C6.61448 4.94773 7.29276 4.66678 8 4.66678C8.70725 4.66678 9.38552 4.94773 9.88562 5.44783C10.3857 5.94792 10.6667 6.6262 10.6667 7.33344C10.6667 8.04069 10.3857 8.71896 9.88562 9.21906C9.38552 9.71916 8.70725 10.0001 8 10.0001Z" fill="#979797"/>
</g>
<defs>
<clipPath id="clip0_14494_485">
<rect width="16" height="16" fill="white"/>
</clipPath>
</defs>
</svg>
